Coordinates
version=1
nRows=5
nColumns=63
inDegrees=yes

Units are S.I. units (second, meters, Newtons, ...)
If the header above contains a line with 'inDegrees', this indicates whether rotational values are in degrees (yes) or radians (no).

endheader
time	pelvis_tilt	pelvis_list	pelvis_rotation	pelvis_tx	pelvis_ty	pelvis_tz	hip_flexion_r	hip_adduction_r	hip_rotation_r	knee_angle_r	knee_angle_r_beta	ankle_angle_r	subtalar_angle_r	mtp_angle_r	hip_flexion_l	hip_adduction_l	hip_rotation_l	knee_angle_l	knee_angle_l_beta	ankle_angle_l	subtalar_angle_l	mtp_angle_l	L5_S1_Flex_Ext	L5_S1_Lat_Bending	L5_S1_axial_rotation	L4_L5_Flex_Ext	L4_L5_Lat_Bending	L4_L5_axial_rotation	L3_L4_Flex_Ext	L3_L4_Lat_Bending	L3_L4_axial_rotation	L2_L3_Flex_Ext	L2_L3_Lat_Bending	L2_L3_axial_rotation	L1_L2_Flex_Ext	L1_L2_Lat_Bending	L1_L2_axial_rotation	L1_T12_Flex_Ext	L1_T12_Lat_Bending	L1_T12_axial_rotation	Abs_r3	Abs_r2	Abs_r1	Abs_t1	Abs_t2	neck_flexion	neck_bending	neck_rotation	arm_flex_r	arm_add_r	arm_rot_r	elbow_flex_r	pro_sup_r	wrist_flex_r	wrist_dev_r	arm_flex_l	arm_add_l	arm_rot_l	elbow_flex_l	pro_sup_l	wrist_flex_l	wrist_dev_l
      1.00000000	      4.78979957	     -0.63498607	     98.55250438	      0.23888736	      1.03271188	      0.37889067	     -4.08070471	      5.99611977	      3.61958146	      1.33633617	      0.02332347	     20.54008364	    -12.56708507	      0.00000000	     -1.64441175	     -6.64684479	     -4.48335597	      4.57428760	      0.07983638	     27.79279118	     13.18076820	      0.00000000	     -0.22579496	      0.61022909	     -1.63947294	     -0.41932382	      0.81160468	     -1.74194000	     -0.37095854	      1.48371100	     -1.74194000	     -0.25806106	      1.48371100	     -1.43453882	     -0.20967320	      1.24437915	     -1.33207177	     -0.12901924	      0.94524485	     -1.22960471	     -1.61283080	      6.90303346	     -9.11825666	      0.00000000	      0.00000000	      7.70854862	      0.59875357	     -0.51391777	     50.24399476	      0.06198367	      7.98848331	    145.23268552	     88.44527398	      3.62503144	     14.67512576	     46.30560936	      0.42706434	      9.71222345	    146.53433158	     89.26297905	      9.67305033	      4.37838413
      1.01666667	      4.96114969	     -0.43558516	     98.79161140	      0.23817064	      1.03326575	      0.37930939	     -4.18182715	      6.19331672	      3.14739009	      1.44998188	      0.02530696	     20.49796382	    -12.30018771	      0.00000000	     -1.78937834	     -6.85665957	     -4.18859739	      4.54632118	      0.07934827	     27.68790902	     13.12249416	      0.00000000	     -0.23813635	      0.63985899	     -1.55515097	     -0.44224301	      0.85101245	     -1.65234790	     -0.39123421	      1.55575314	     -1.65234790	     -0.27216603	      1.55575314	     -1.36075710	     -0.22113341	      1.30480044	     -1.26356016	     -0.13607111	      0.99114157	     -1.16636323	     -1.70098413	      7.23821282	     -8.64928314	      0.00000000	      0.00000000	      7.11012719	      0.20544568	     -1.15710801	     50.52355374	      0.15646235	      8.40719642	    145.15492781	     88.15988793	      4.51207317	     14.19065005	     46.08528214	      1.74135604	     10.98956340	    146.86025842	     89.21631723	      9.26792620	      4.92806361
      1.03333333	      4.96116697	     -0.25574297	     99.16420570	      0.23755140	      1.03364058	      0.37988667	     -4.27097156	      6.23127332	      2.63996860	      1.57314951	      0.02745664	     20.49698804	    -12.17650281	      0.00000000	     -1.84952237	     -6.90305998	     -3.91005800	      4.60365647	      0.08034896	     27.63825492	     13.10249267	      0.00000000	     -0.25551228	      0.64289241	     -1.48446952	     -0.47451185	      0.85504690	     -1.57724886	     -0.41978112	      1.56312860	     -1.57724886	     -0.29202498	      1.56312860	     -1.29891083	     -0.23726870	      1.31098620	     -1.20613148	     -0.14599971	      0.99584034	     -1.11335214	     -1.82509863	      7.27252749	     -8.25617411	      0.00000000	      0.00000000	      6.68126260	     -0.01658371	     -1.88440096	     50.51335690	      0.31092137	      8.72216579	    145.30536355	     87.83495637	      5.35732656	     13.77706214	     45.51455820	      2.90376313	     12.32785301	    147.12859102	     89.15613440	      8.82921818	      5.05438625
      1.05000000	      4.97479436	     -0.11011746	     99.60595144	      0.23705102	      1.03388554	      0.38030747	     -4.33402717	      6.29849512	      2.09692495	      1.68283347	      0.02937098	     20.50687487	    -12.05056973	      0.00000000	     -1.85098945	     -6.97229713	     -3.60994792	      4.67822744	      0.08165047	     27.72751197	     13.13694016	      0.00000000	     -0.26835044	      0.63824074	     -1.43740511	     -0.49835359	      0.84886018	     -1.52724292	     -0.44087293	      1.55181853	     -1.52724292	     -0.30669771	      1.55181853	     -1.25772947	     -0.24919021	      1.30150051	     -1.16789165	     -0.15333544	      0.98863490	     -1.07805383	     -1.91680032	      7.21990686	     -7.99441598	      0.00000000	      0.00000000	      6.44371581	     -0.14961265	     -2.88254379	     50.27922595	      0.31930531	      8.91520738	    145.66777022	     87.46561685	      6.33551808	     13.40110905	     44.69493520	      3.78403165	     13.82750729	    147.37722430	     89.08361961	      8.33957594	      4.89332074
      1.06666667	      4.95108828	      0.02826608	    100.07928865	      0.23646094	      1.03404854	      0.38060696	     -4.40932472	      6.32408507	      1.57362693	      1.79413449	      0.03131355	     20.57381573	    -12.00193161	      0.00000000	     -1.82653829	     -6.99684539	     -3.39531567	      4.79469694	      0.08368325	     27.85704109	     13.22251335	      0.00000000	     -0.27801950	      0.63034416	     -1.40766573	     -0.51631001	      0.83835774	     -1.49564484	     -0.45675823	      1.53261880	     -1.49564484	     -0.31774848	      1.53261880	     -1.23170751	     -0.25816891	      1.28539782	     -1.14372841	     -0.15886034	      0.97640311	     -1.05574930	     -1.98586547	      7.13057924	     -7.82901450	      0.00000000	      0.00000000	      6.33336803	     -0.17981762	     -3.75795978	     49.92283797	      0.27452397	      9.25400565	    146.17663061	     87.02065198	      7.15051969	     13.19951986	     43.66017411	      4.48822333	     15.10284999	    147.44208361	     89.02222657	      8.03189740	      4.60234819
